<?xml version="1.0" encoding="utf-8"?>
<!-- Generator: Adobe Illustrator 20.0.0, SVG Export Plug-In . SVG Version: 6.00 Build 0)  -->
<svg version="1.1" id="Layer_1" xmlns="http://www.w3.org/2000/svg" xmlns:xlink="http://www.w3.org/1999/xlink" x="0px" y="0px"
	 viewBox="0 0 850.4 850.4" style="enable-background:new 0 0 850.4 850.4;" xml:space="preserve">
<style type="text/css">
	.st0{fill:none;stroke:#000000;stroke-width:0.5669;}
</style>
<rect x="0.3" y="-0.5" class="st0" width="850.2" height="849.9"/>
<path class="st0" d="M0.3,31.5c0,0,67.6,30.7,70.1,109.4c0,0-59-3.7-44.3,45.5c0,0,32,41.8,82.4-17.2c0,0,18,27.9,43,17.2
	c0,0,27.2-8.4,36.9,1.2"/>
<path class="st0" d="M0.3,215.8c0,0,55.3,81.1,121.7,40.5c0,0,79.9-36.9,124.1-11.1"/>
<path class="st0" d="M158.9,582c0,0-25.8-98.3-158.6-98.3"/>
<path class="st0" d="M0.3,273.5c0,0,27,45.5,71.3,35.6c0,0-71.3,106.9,35.6,147.5c0,0-2.5-29.8,9.8-33.3c0,0,18-7,32.6-24.3
	c3.6-4.3,7.1-9.3,10-14.9c4.1-5.3,4.1-12.8,7.1-18.8c6,10.5,13.5,21,23.4,28.7c3.7,2.4,7.6,4.2,11.9,5c8.5,1.5,18.1-1.2,28.4-11.7
	c5.1-5.3,10.4-12.5,15.7-22.1c-20.9,0.2-53.9,3.2-58.4-19.3c-6-21,10.5-46.5,33-51c19.5-4.5,36,9,46.6,24c1.8,2.8,3.6,6.1,5.1,9.8
	c7.5,18.7,8.8,49-16.4,95.8c0,0-62.7,93.6-67.6,157.5h-29.5"/>
<path class="st0" d="M138.8,621.3h85.3c0,0-18.4-58.2,73.8-196.8c0,0,33.2-45.3,16-111.6"/>
<path class="st0" d="M0.3,516.8c0,0,109.7-11.1,138.4,104.5"/>
<path class="st0" d="M425.4,424.5c0,0-127.6,21.1-179.2,242.3H138.8c0,0-4.5,118-138.4,135.2"/>
<path class="st0" d="M0.3,849.4c165.9-25,174.5-132.3,174.5-132.3h131.5c0,0-1.7-162.2,119-233.5c0,0-10,97.9,120.7,145
	c0,0-38.1,78.6-98.3,14.7c0,0,29.5-28.3-6.1-47.9c0,0-62.7-19.7-52.9,51.6c0,0,30.7,105.3,185.6,19.4"/>
<path class="st0" d="M474.8,824c-11.1-73.7-78.7-103.2-78.7-103.2c-47.9-28.3-40.6-72.5-40.6-72.5s-52.4,16-0.4,75
	c0,0-25.4,27,36.1,56.5c0,0,39.3,18.9,9.8,44.2c0,0-19.7,11.1-39.3-22.1c0,0-65.1-57.8-100.8-34.4c0,0-6.1,19.7-4.9,34.4
	c0,0-41.8-24.6-50.4-6.1c0,0-7.4,20.7,0,30c0,0-59.9-19.8-66.8,23.6"/>
<line class="st0" x1="520.4" y1="824" x2="474.8" y2="824"/>
<path class="st0" d="M484.6,483.7c0,0-30.7,61.4,98.3,98.3"/>
<path class="st0" d="M0.3,558.6c0,0,29-0.5,40.2,10.4c5.6,5.5,6.9,13.8-2.1,26.5c0,0-6.3,5.2-11.5,11.7c-5.1,6.5-9.1,14.1-4.3,19
	c0,0,0.3,4,5,5.3c17.7,2.1,29.7-12.9,44.7-20.4c15-7.5,28.5,7.5,25.5,21c-1.5,7.5-1.5,16.5-3.8,23.9"/>
<path class="st0" d="M0.3,753.5c0,0,29,0.5,40.2-10.4c5.6-5.5,6.9-13.8-2.1-26.5c0,0-6.3-5.2-11.5-11.7c-5.1-6.5-9.1-14.1-4.3-19
	c0,0,0.3-4,5-5.3c17.7-2.1,29.7,12.9,44.7,20.4c15,7.5,28.5-7.5,25.5-21c-1.5-7.5-1.5-16.5-3.8-23.9"/>
<path class="st0" d="M31.5-0.8c0,0,30.7,67.6,109.4,70c0,0-3.7-59,45.5-44.2c0,0,41.8,31.9-17.2,82.3c0,0,27.9,18,17.2,43
	c0,0-8.4,27.2,1.2,36.9"/>
<path class="st0" d="M215.9-0.8c0,0,81.1,55.3,40.6,121.6c0,0-36.9,79.9-11.1,124.1"/>
<path class="st0" d="M582.2,157.8c0,0-98.3-25.8-98.3-158.5"/>
<path class="st0" d="M273.6-0.8c0,0,45.5,27,35.6,71.3c0,0,106.9-71.3,147.5,35.6c0,0-29.8-2.5-33.4,9.8c0,0-7,18-24.3,32.6
	c-4.3,3.6-9.3,7.1-14.9,9.9c-5.3,4.1-12.8,4.1-18.8,7.1c10.5,6,21,13.5,28.7,23.4c2.4,3.7,4.2,7.6,5,11.9
	c1.5,8.5-1.2,18.1-11.7,28.4c-5.3,5.1-12.5,10.4-22.1,15.7c0.2-20.9,3.2-53.9-19.3-58.4c-21-6-46.5,10.5-51,33
	c-4.5,19.5,9,36,24,46.5c2.8,1.8,6.1,3.6,9.8,5.1c18.7,7.5,49,8.8,95.8-16.4c0,0,93.6-62.7,157.5-67.6v-29.5"/>
<path class="st0" d="M621.5,137.6v85.3c0,0-58.2-18.4-196.9,73.7c0,0-45.3,33.2-111.6,16"/>
<path class="st0" d="M517-0.8c0,0-11.1,109.7,104.5,138.4"/>
<path class="st0" d="M424.6,424.2c0,0,21.1-127.6,242.4-179.2V137.6c0,0,118-4.4,135.2-138.4"/>
<path class="st0" d="M849.7-0.8c-25,165.9-132.3,174.5-132.3,174.5v131.5c0,0-162.3-1.7-233.5,119c0,0,97.9-10,145,120.6
	c0,0,78.7-38.1,14.8-98.3c0,0-28.3,29.5-47.9-6.1c0,0-19.7-62.7,51.6-52.8c0,0,105.3,30.7,19.5,185.5"/>
<path class="st0" d="M824.3,473.6c-73.8-11.1-103.2-78.6-103.2-78.6c-28.3-47.9-72.5-40.5-72.5-40.5s16-52.4,75-0.4
	c0,0,27-25.4,56.5,36c0,0,18.9,39.3,44.3,9.8c0,0,11.1-19.7-22.1-39.3c0,0-57.8-65.1-34.4-100.8c0,0,19.7-6.1,34.4-4.9
	c0,0-24.6-41.8-6.1-50.4c0,0,20.7-7.4,30,0c0,0-19.8-59.9,23.6-66.8"/>
<line class="st0" x1="824.3" y1="519.2" x2="824.3" y2="473.6"/>
<path class="st0" d="M483.8,483.4c0,0,61.5-30.7,98.3,98.3"/>
<path class="st0" d="M558.8-0.8c0,0-0.5,28.9,10.4,40.2c5.5,5.6,13.8,6.9,26.5-2.1c0,0,5.2-6.3,11.7-11.5c6.5-5.1,14.1-9.1,19.1-4.3
	c0,0,4,0.3,5.3,5c2.1,17.7-12.9,29.7-20.4,44.7c-7.5,15,7.5,28.5,21,25.5c7.5-1.5,16.5-1.5,23.9-3.8"/>
<path class="st0" d="M753.8-0.8c0,0,0.5,28.9-10.4,40.2c-5.5,5.6-13.8,6.9-26.5-2.1c0,0-5.2-6.3-11.7-11.5
	c-6.5-5.1-14.1-9.1-19.1-4.3c0,0-4,0.3-5.4,5c-2.1,17.7,12.9,29.7,20.4,44.7s-7.5,28.5-21,25.5c-7.5-1.5-16.5-1.5-23.9-3.8"/>
<path class="st0" d="M519.4,849.6c0-182.9,148.3-331.2,331.3-331.2"/>
<path class="st0" d="M585.7,849.6c0-146.3,118.7-265,265-265"/>
<path class="st0" d="M625.5,849.6c0-124.4,100.9-225.2,225.3-225.2"/>
<path class="st0" d="M656.7,849.6c0,0-22.1-35.4,22.1-39.1l92.2,25.8c0,0,19.7,7.2,23.4-6.2c0,0,8.6-7.3-14.8-19.6l-71.3-43
	c0,0-47.9-23.3-13.5-41.8c0,0,16-1.2,23.4-8.6"/>
<path class="st0" d="M849.8,656.6c0,0-35.4-22.1-39.1,22.1l25.8,92.2c0,0,7.2,19.7-6.2,23.3c0,0-7.3,8.6-19.6-14.7l-43-71.3
	c0,0-23.4-47.9-41.8-13.5c0,0-1.2,16-8.6,23.4"/>
</svg>
